<?xml version="1.0" encoding="UTF-8" standalone="no"?>
<!-- Created with Inkscape (http://www.inkscape.org/) -->

<svg
   width="143.90471mm"
   height="80.358589mm"
   viewBox="0 0 143.90471 80.358589"
   version="1.1"
   id="svg5"
   xml:space="preserve"
   inkscape:export-filename="bitmap.svg"
   inkscape:export-xdpi="96"
   inkscape:export-ydpi="96"
   xmlns:inkscape="http://www.inkscape.org/namespaces/inkscape"
   xmlns:sodipodi="http://sodipodi.sourceforge.net/DTD/sodipodi-0.dtd"
   xmlns="http://www.w3.org/2000/svg"
   xmlns:svg="http://www.w3.org/2000/svg"><sodipodi:namedview
     id="namedview7"
     pagecolor="#ffffff"
     bordercolor="#000000"
     borderopacity="0.25"
     inkscape:showpageshadow="2"
     inkscape:pageopacity="0.0"
     inkscape:pagecheckerboard="0"
     inkscape:deskcolor="#d1d1d1"
     inkscape:document-units="mm"
     showgrid="false" /><defs
     id="defs2" /><g
     inkscape:label="Layer 1"
     inkscape:groupmode="layer"
     id="layer1"
     transform="translate(-46.478875,-103.01122)"><path
       style="fill:#979797;fill-opacity:1;stroke:#010f00;stroke-width:0.635"
       d="m 66.019629,160.87617 c 0.668813,21.98486 0.759057,21.81819 0.759057,21.81819 v 0 l 100.628564,0.34378 -1.25762,-37.22963 -10.99597,-3.87275 -27.34663,3.34856 0.48478,9.9372 z"
       id="path1759"
       inkscape:export-filename="cunts.svg"
       inkscape:export-xdpi="96"
       inkscape:export-ydpi="96" /><path
       style="fill:#998f8f;fill-opacity:1;stroke:#010f00;stroke-width:0.635"
       d="m 138.9557,139.12529 0.60967,-29.63859 5.02199,0.62302 3.5582,29.16178 z"
       id="path1761" /><path
       style="fill:#918787;fill-opacity:1;stroke:#010f00;stroke-width:0.635"
       d="m 120.36199,150.9203 -1.86912,-22.86874 -3.37344,-0.29357 -2.50448,24.3034 z"
       id="path1763" /><path
       style="fill:#969090;fill-opacity:1;stroke:#010f00;stroke-width:0.635"
       d="m 99.359262,154.12851 -1.695402,-21.01661 -3.221898,0.24818 -2.145101,22.17804 z"
       id="path1765" /><path
       style="fill:#999999;fill-opacity:1;stroke:#010f00;stroke-width:0.635"
       d="m 79.37158,156.67194 -1.241483,-17.39007 -2.879151,0.1708 -2.048039,18.15396 z"
       id="path1767" /><path
       style="fill:#867b7b;fill-opacity:1;stroke:#010f00;stroke-width:0.635"
       d="m 130.21342,147.94889 1.73612,32.24504 23.25261,-0.38158 -1.52081,-34.38864 z"
       id="path1918" /><path
       style="fill:#837b7b;fill-opacity:1;stroke:#010f00;stroke-width:0.635"
       d="m 70.027132,163.20737 0.08693,17.35966 55.676698,-0.75507 -0.78122,-21.26896 z"
       id="path5052" /><rect
       style="display:inline;fill:#c28888;fill-opacity:0.521047;stroke:#010f00;stroke-width:0.635"
       id="rect8752"
       width="143.26968"
       height="20.005194"
       x="46.796379"
       y="163.04712"
       inkscape:highlight-color="#3b80ee"
       inkscape:label="rect8752" /><g
       aria-label="Shapes Factory
"
       id="text8132"
       style="font-size:19.7556px;fill:#999999;stroke:#010f00;stroke-width:0.635"
       transform="matrix(0.92817551,0,0,0.86025792,20.456709,112.9186)"
       inkscape:export-filename="text8132.svg"
       inkscape:export-xdpi="96"
       inkscape:export-ydpi="96"><path
         d="m 46.874533,72.65195 q 0,1.876782 -1.363136,2.923829 -1.363137,1.047047 -3.674542,1.047047 -1.185336,0 -2.192871,-0.1778 -1.007536,-0.177801 -1.679226,-0.49389 v -1.698982 q 0.711201,0.31609 1.758248,0.572912 1.066802,0.256823 2.192872,0.256823 1.580448,0 2.370672,-0.612423 0.809979,-0.612424 0.809979,-1.659471 0,-0.691446 -0.296334,-1.16558 -0.296334,-0.474135 -1.027291,-0.869247 -0.711202,-0.414867 -1.995316,-0.869246 -1.797759,-0.651935 -2.726272,-1.600204 -0.908758,-0.948268 -0.908758,-2.587983 0,-1.126069 0.572912,-1.916293 0.572913,-0.80998 1.580448,-1.244603 1.027292,-0.434623 2.350917,-0.434623 1.16558,0 2.133605,0.217311 0.968024,0.217312 1.758248,0.572913 l -0.553157,1.521181 q -0.730957,-0.31609 -1.600203,-0.533401 -0.849491,-0.217312 -1.778004,-0.217312 -1.323626,0 -1.995316,0.572912 -0.67169,0.553157 -0.67169,1.48167 0,0.711202 0.296334,1.185336 0.296334,0.474135 0.968024,0.849491 0.67169,0.375357 1.817515,0.80998 1.244603,0.454379 2.094094,0.98778 0.869246,0.513645 1.303869,1.244603 0.454379,0.730957 0.454379,1.83727 z"
         id="path8575" /><path
         d="m 51.220761,65.816513 q 0,0.790224 -0.09878,1.48167 h 0.118534 q 0.513645,-0.80998 1.382892,-1.224847 0.889002,-0.414868 1.916293,-0.414868 1.936049,0 2.904073,0.928513 0.968025,0.908758 0.968025,2.943585 V 76.42527 H 56.69306 v -6.776171 q 0,-2.548472 -2.370672,-2.548472 -1.778004,0 -2.449694,1.007535 -0.651935,0.98778 -0.651935,2.844807 V 76.42527 H 49.482268 V 61.411014 h 1.738493 z"
         id="path8577" /><path
         d="m 65.701618,65.658468 q 1.936048,0 2.864562,0.849491 0.928513,0.849491 0.928513,2.706517 v 7.210794 h -1.264359 l -0.335845,-1.501426 h -0.07902 q -0.691446,0.869247 -1.461915,1.284114 -0.750712,0.414868 -2.094093,0.414868 -1.442159,0 -2.390428,-0.750713 -0.948269,-0.770468 -0.948269,-2.390427 0,-1.580448 1.244603,-2.429939 1.244603,-0.869247 3.832587,-0.948269 l 1.797759,-0.05927 v -0.632179 q 0,-1.323625 -0.572912,-1.837271 -0.572913,-0.513645 -1.619959,-0.513645 -0.829736,0 -1.580448,0.256822 -0.750713,0.237068 -1.402648,0.553157 l -0.533401,-1.303869 q 0.691446,-0.375357 1.639715,-0.63218 0.948268,-0.276578 1.97556,-0.276578 z m 0.513645,5.650102 q -1.97556,0.07902 -2.746028,0.632179 -0.750713,0.553157 -0.750713,1.560692 0,0.889002 0.533401,1.30387 0.553157,0.414867 1.402648,0.414867 1.343381,0 2.232383,-0.730957 0.889002,-0.750713 0.889002,-2.291649 v -0.948269 z"
         id="path8579" /><path
         d="m 77.811814,65.638712 q 1.955804,0 3.14114,1.363137 1.205092,1.363136 1.205092,4.109165 0,2.706517 -1.205092,4.109164 -1.185336,1.402648 -3.160896,1.402648 -1.224847,0 -2.034827,-0.454379 -0.790224,-0.474134 -1.244603,-1.086558 h -0.118533 q 0.03951,0.335845 0.07902,0.849491 0.03951,0.513646 0.03951,0.889002 v 4.346232 H 72.774136 V 65.836268 h 1.422403 l 0.237067,1.442159 h 0.07902 q 0.474135,-0.691446 1.244603,-1.16558 0.770469,-0.474135 2.054583,-0.474135 z m -0.31609,1.461915 q -1.619959,0 -2.29165,0.908757 -0.651934,0.908758 -0.691446,2.765784 v 0.335846 q 0,1.955804 0.63218,3.022606 0.651934,1.047047 2.390427,1.047047 0.968025,0 1.580448,-0.533401 0.632179,-0.533401 0.928513,-1.442159 0.31609,-0.928513 0.31609,-2.113849 0,-1.817515 -0.711202,-2.904073 -0.691446,-1.086558 -2.15336,-1.086558 z"
         id="path8581" /><path
         d="m 89.013237,65.638712 q 1.363137,0 2.331161,0.592668 0.98778,0.592668 1.501426,1.679226 0.533401,1.066803 0.533401,2.508962 v 1.047046 H 86.12892 q 0.03951,1.79776 0.908757,2.746029 0.889002,0.928513 2.46945,0.928513 1.007536,0 1.778004,-0.1778 0.790224,-0.197556 1.61996,-0.553157 v 1.521181 q -0.80998,0.355601 -1.600204,0.513646 -0.790224,0.1778 -1.876782,0.1778 -1.501426,0 -2.667006,-0.612424 -1.145825,-0.612423 -1.79776,-1.817515 -0.632179,-1.224847 -0.632179,-2.983095 0,-1.738493 0.572913,-2.983096 0.592668,-1.244603 1.639714,-1.916293 1.066803,-0.671691 2.46945,-0.671691 z m -0.01976,1.422404 q -1.244603,0 -1.97556,0.809979 -0.711202,0.790224 -0.849491,2.212627 h 5.393279 q -0.01976,-1.34338 -0.632179,-2.173116 -0.612424,-0.84949 -1.936049,-0.84949 z"
         id="path8583" /><path
         d="m 102.96067,73.501441 q 0,1.540937 -1.14582,2.331161 -1.14583,0.790224 -3.081876,0.790224 -1.106314,0 -1.916294,-0.1778 -0.790224,-0.177801 -1.402647,-0.49389 v -1.580448 q 0.632179,0.316089 1.521181,0.592668 0.908758,0.256822 1.837271,0.256822 1.323625,0 1.916295,-0.414867 0.59267,-0.434623 0.59267,-1.145825 0,-0.395112 -0.21732,-0.711202 -0.21731,-0.316089 -0.79022,-0.632179 -0.553156,-0.316089 -1.600203,-0.711201 -1.027291,-0.395112 -1.758249,-0.790224 -0.730957,-0.395112 -1.126069,-0.948269 -0.395112,-0.553157 -0.395112,-1.422403 0,-1.343381 1.086558,-2.074338 1.106314,-0.730958 2.884318,-0.730958 0.968027,0 1.797757,0.197556 0.84949,0.177801 1.58045,0.513646 l -0.59267,1.382892 q -0.67169,-0.276578 -1.40265,-0.474134 -0.73095,-0.197556 -1.501421,-0.197556 -1.066802,0 -1.639715,0.3556 -0.553156,0.335846 -0.553156,0.928514 0,0.434623 0.256822,0.750712 0.256823,0.296334 0.849491,0.592668 0.612424,0.276579 1.619959,0.671691 1.00754,0.375356 1.71874,0.770468 0.7112,0.395112 1.08656,0.968025 0.37535,0.553156 0.37535,1.402647 z"
         id="path8585" /><path
         d="m 112.68043,76.42527 h -1.778 V 62.319772 h 7.88248 v 1.560692 h -6.10448 v 4.998167 h 5.72913 v 1.560692 h -5.72913 z"
         id="path8587" /><path
         d="m 124.92889,65.658468 q 1.93605,0 2.86457,0.849491 0.92851,0.849491 0.92851,2.706517 v 7.210794 h -1.26436 l -0.33584,-1.501426 h -0.079 q -0.69144,0.869247 -1.46191,1.284114 -0.75071,0.414868 -2.0941,0.414868 -1.44215,0 -2.39042,-0.750713 -0.94827,-0.770468 -0.94827,-2.390427 0,-1.580448 1.2446,-2.429939 1.2446,-0.869247 3.83259,-0.948269 l 1.79776,-0.05927 v -0.632179 q 0,-1.323625 -0.57292,-1.837271 -0.57291,-0.513645 -1.61995,-0.513645 -0.82974,0 -1.58045,0.256822 -0.75072,0.237068 -1.40265,0.553157 l -0.5334,-1.303869 q 0.69144,-0.375357 1.63971,-0.63218 0.94827,-0.276578 1.97556,-0.276578 z m 0.51365,5.650102 q -1.97556,0.07902 -2.74603,0.632179 -0.75071,0.553157 -0.75071,1.560692 0,0.889002 0.5334,1.30387 0.55316,0.414867 1.40265,0.414867 1.34338,0 2.23238,-0.730957 0.889,-0.750713 0.889,-2.291649 v -0.948269 z"
         id="path8589" /><path
         d="m 136.24886,76.622826 q -1.40265,0 -2.50896,-0.572912 -1.08656,-0.572913 -1.71874,-1.778004 -0.61242,-1.205092 -0.61242,-3.081874 0,-1.955804 0.65193,-3.180652 0.65194,-1.224847 1.75825,-1.797759 1.12607,-0.572913 2.54848,-0.572913 0.80997,0 1.56069,0.177801 0.75071,0.158045 1.22484,0.395112 l -0.5334,1.442159 q -0.47413,-0.177801 -1.10631,-0.335846 -0.63218,-0.158044 -1.18534,-0.158044 -3.12138,0 -3.12138,4.010386 0,1.916294 0.75071,2.943585 0.77047,1.007535 2.2719,1.007535 0.86924,0 1.52118,-0.1778 0.67169,-0.1778 1.22484,-0.434623 v 1.540937 q -0.5334,0.276578 -1.18533,0.414867 -0.63218,0.158045 -1.54094,0.158045 z"
         id="path8591" /><path
         d="m 145.02034,75.200423 q 0.39511,0 0.80998,-0.05927 0.41487,-0.07902 0.67169,-0.158045 v 1.323625 q -0.27658,0.13829 -0.79022,0.217312 -0.51365,0.09878 -0.98778,0.09878 -0.82974,0 -1.54094,-0.276578 -0.69145,-0.296334 -1.12607,-1.007536 -0.43462,-0.711202 -0.43462,-1.995316 v -6.163747 h -1.50143 v -0.829735 l 1.52118,-0.691446 0.69145,-2.252138 h 1.02729 v 2.429938 h 3.06212 v 1.343381 h -3.06212 v 6.124236 q 0,0.968025 0.45438,1.442159 0.47413,0.454379 1.20509,0.45438 z"
         id="path8593" /><path
         d="m 157.82197,71.111014 q 0,2.627494 -1.34338,4.069653 -1.32362,1.442159 -3.59552,1.442159 -1.40264,0 -2.50896,-0.632179 -1.08656,-0.651935 -1.71873,-1.876782 -0.63218,-1.244603 -0.63218,-3.002851 0,-2.627495 1.32362,-4.049898 1.32363,-1.422404 3.59552,-1.422404 1.44216,0 2.52872,0.651935 1.10631,0.632179 1.71873,1.857027 0.63218,1.205091 0.63218,2.96334 z m -8.00101,0 q 0,1.876782 0.73095,2.983095 0.75072,1.086558 2.37067,1.086558 1.60021,0 2.35092,-1.086558 0.75071,-1.106313 0.75071,-2.983095 0,-1.876782 -0.75071,-2.943585 -0.75071,-1.066802 -2.37067,-1.066802 -1.61996,0 -2.35092,1.066802 -0.73095,1.066803 -0.73095,2.943585 z"
         id="path8595" /><path
         d="m 165.50689,65.638712 q 0.29633,0 0.63218,0.03951 0.3556,0.01976 0.61242,0.07902 l -0.21731,1.600204 q -0.25682,-0.05927 -0.57291,-0.09878 -0.29634,-0.03951 -0.57291,-0.03951 -0.80998,0 -1.52119,0.454379 -0.7112,0.434623 -1.14582,1.244603 -0.41487,0.790224 -0.41487,1.857026 v 5.650102 h -1.73849 V 65.836268 h 1.4224 l 0.19756,1.936049 h 0.079 q 0.51365,-0.869246 1.32363,-1.501425 0.80998,-0.63218 1.91629,-0.63218 z"
         id="path8597" /><path
         d="m 167.06758,65.836268 h 1.85703 l 2.29165,6.025458 q 0.29633,0.790224 0.5334,1.521182 0.23707,0.711201 0.3556,1.363136 h 0.079 q 0.11854,-0.49389 0.37536,-1.284114 0.25682,-0.80998 0.5334,-1.619959 l 2.15336,-6.005703 h 1.87678 l -4.56354,12.050916 q -0.55316,1.501426 -1.44216,2.390428 -0.86924,0.889002 -2.41018,0.889002 -0.47414,0 -0.82974,-0.05927 -0.3556,-0.03951 -0.61242,-0.09878 v -1.382892 q 0.21731,0.03951 0.51365,0.07902 0.31609,0.03951 0.65193,0.03951 0.90876,0 1.46192,-0.513646 0.57291,-0.513645 0.889,-1.363136 l 0.55315,-1.402648 z"
         id="path8599" /></g><path
       style="fill:#999999;fill-opacity:1;stroke:#010f00;stroke-width:0.635"
       id="path8235"
       d="m 78.371577,134.14212 c -0.29772,-0.555 -0.650285,-1.08283 -1.143987,-1.47948 -1.013002,4.0207 -2.446305,-2.22449 -3.910176,-2.05954 -0.388673,0.0438 -1.359641,0.71683 -1.744676,0.92847 -0.996114,0.51711 -1.856761,0.92462 -2.996089,0.8728 -0.312515,-0.058 -0.610462,-0.093 -0.903406,-0.22801 -0.148656,-0.0685 -0.562822,-0.33443 -0.419857,-0.25471 4.956262,2.76388 3.270107,1.96755 2.148155,1.06026 -1.057286,-0.81309 -3.220852,-3.06272 -4.388763,-2.10883 -0.07487,0.0611 -0.301284,0.34041 -0.364667,0.41663 -0.0725,0.0558 -0.128429,0.14654 -0.217509,0.16741 -0.156011,0.0366 -0.79702,-0.13547 -0.87099,-0.15435 -0.566925,-0.14466 -1.073084,-0.3504 -1.603536,-0.59327 -0.149119,-0.082 -0.594953,-0.33075 -0.447363,-0.24602 0.989179,0.56786 1.978734,1.13511 2.972192,1.69546 0.07126,0.0402 -0.134483,-0.0935 -0.205137,-0.13474 -1.164577,-0.67982 -2.309548,-1.39529 -3.500239,-2.02826 -0.05082,-0.027 -0.09869,0.0592 -0.148042,0.0888 0,0 3.237716,2.31466 3.237716,2.31466 v 0 c -0.09745,1.32443 0.01897,0.0613 -3.243495,-1.80952 -0.08308,-0.0476 0.152286,0.11702 0.234889,0.16549 1.216676,0.71398 2.435522,1.42441 3.662037,2.12135 0.146471,0.0832 0.303824,0.14566 0.455737,0.21849 0.770927,0.30959 1.95539,0.81051 2.769942,0.44429 0.10405,-0.0468 0.176564,-0.14451 0.264847,-0.21676 0.106953,-0.11128 0.232593,-0.30747 0.419384,-0.26588 0.06102,0.0136 0.224575,0.10934 0.170886,0.0773 -3.369276,-2.01035 -4.031477,-2.52014 -2.793227,-1.59796 1.549836,1.26077 1.853734,1.31542 4.460295,2.79742 0.440267,0.25032 0.945737,0.31237 1.440704,0.34061 1.130715,-0.0687 2.085414,-0.52405 3.079022,-1.04432 0.425397,-0.22923 0.899301,-0.5745 1.385642,-0.66301 0.187737,-0.0342 0.347972,0.0437 0.518168,0.10052 -1.041887,-0.6085 -2.083777,-1.217 -3.125663,-1.8255 0.560236,0.26162 0.919445,0.73829 1.220377,1.26837 0,0 3.586829,1.63177 3.586829,1.63177 z" /><path
       style="fill:#999999;fill-opacity:1;stroke:#010f00;stroke-width:0.635"
       id="path8237"
       d="m 95.806693,128.15248 c -1.297443,0.1018 -2.552309,-0.30476 -3.762563,-0.72294 -0.823265,-0.28494 -1.600579,-0.66719 -2.36047,-1.08845 -0.205264,-0.11379 -0.81738,-0.46172 -0.613452,-0.34555 2.962135,1.68738 3.676676,2.15426 2.436188,1.35893 -4.627182,-2.68701 -2.607223,-2.1061 -5.882674,-1.42055 -1.762678,0.26549 -3.51149,-0.1959 -5.116063,-0.90365 -1.259311,-0.69413 -3.608567,-2.04233 2.190118,1.26446 0.03069,0.0175 -0.0703,-0.0891 -0.08825,-0.0587 -0.09537,0.16166 -0.12656,0.3534 -0.189838,0.5301 0,0 -3.122343,-2.45657 -3.122343,-2.45657 v 0 c -0.123155,0.15257 -0.288419,0.27917 -0.369464,0.45772 -0.02109,0.0464 0.07305,0.0727 0.116912,0.0987 1.465574,0.8692 2.885069,1.81293 4.439583,2.50872 1.670175,0.62774 3.461391,1.02834 5.2474,0.72758 0.256481,-0.0462 0.514276,-0.0857 0.769442,-0.13869 0.302697,-0.0629 0.594564,-0.17234 0.897663,-0.23325 1.265044,-0.25423 3.653171,1.94952 -2.508644,-1.77846 2.284364,1.39418 4.559257,2.87301 7.097892,3.76442 1.306729,0.41717 2.638163,0.78796 4.023164,0.76451 0,0 -3.204601,-2.32828 -3.204601,-2.32828 z" /><path
       style="fill:#999999;fill-opacity:1;stroke:#010f00;stroke-width:0.635"
       id="path8239"
       d="m 113.20689,123.33085 c -1.65184,0.17204 -3.23725,-0.22181 -4.80404,-0.6961 -0.54859,-0.13395 -1.64676,-0.82133 -2.2088,-0.81351 -0.5712,0.008 -1.94243,0.63125 -2.5009,0.83932 -2.03265,0.66591 -4.152692,0.31809 -6.112746,-0.41183 -1.270143,-0.66081 -3.752588,-2.0724 2.041284,1.18339 0.04296,0.0241 -0.06787,-0.0971 -0.116732,-0.0907 -0.04201,0.006 -0.03813,0.0757 -0.05719,0.1135 0,0 -3.508076,-1.87829 -3.508076,-1.87829 v 0 c -0.07115,0.21117 -0.175633,0.27469 0.0486,0.41258 1.503844,0.92472 2.93338,1.93196 4.56884,2.57488 2.02976,0.62187 4.17293,0.85758 6.22721,0.18432 0.7558,-0.25818 1.61338,-0.68103 2.43945,-0.59282 0.67051,0.0716 1.46711,0.63202 2.12925,0.7532 1.68673,0.47305 3.26181,0.77411 5.0222,0.72401 0,0 -3.16835,-2.30194 -3.16835,-2.30194 z" /><path
       style="fill:#999999;fill-opacity:1;stroke:#010f00;stroke-width:0.635"
       id="path8241"
       d="m 140.05137,104.74602 c -1.44129,0.62518 -3.27855,0.865 -4.83857,0.76907 -0.42945,-0.0264 -0.85248,-0.1174 -1.27872,-0.1761 -1.09144,-0.20156 -2.04278,-0.73552 -3.01256,-1.23763 -0.23476,-0.12155 -0.46,-0.26634 -0.7087,-0.35597 -0.52483,-0.18914 -0.80839,-0.1509 -1.34681,-0.15917 -0.65597,0.0293 -1.28341,0.28016 -1.93416,0.3375 -0.7848,0.0692 -1.56041,-0.0778 -2.32664,-0.21968 -0.86882,-0.25484 -0.45243,-0.12298 -1.25032,-0.39196 0,0 3.03107,2.34579 3.03107,2.34579 v 0 c 0.7866,0.22653 0.37396,0.11903 1.23937,0.31694 0.81232,0.11847 1.60115,0.21338 2.42417,0.13273 0.19848,-0.0195 1.06335,-0.18729 1.29174,-0.21402 0.20118,-0.0236 0.40415,-0.0277 0.60623,-0.0415 0.19873,0.0205 0.40068,0.0203 0.59619,0.0614 0.55806,0.11724 0.77791,0.27302 1.29678,0.52536 0.64448,0.31344 1.13202,0.56978 1.82943,0.78526 0.38704,0.1196 0.78725,0.19144 1.18088,0.28716 0.43347,0.0434 0.86506,0.11444 1.30041,0.13021 1.4335,0.052 3.31268,-0.14949 4.69617,-0.56374 0.17898,-0.0536 0.34691,-0.13883 0.52037,-0.20825 0,0 -3.31633,-2.12341 -3.31633,-2.12341 z" /></g></svg>
